<?xml version="1.0" encoding="utf-8"?>
<!-- Generator: Adobe Illustrator 27.7.0, SVG Export Plug-In . SVG Version: 6.00 Build 0)  -->
<svg version="1.1" id="Layer_1" xmlns="http://www.w3.org/2000/svg" xmlns:xlink="http://www.w3.org/1999/xlink" x="0px" y="0px"
	 viewBox="0 0 841.9 199.6" style="enable-background:new 0 0 841.9 199.6;" xml:space="preserve">
<style type="text/css">
	.st0{fill:#C90019;}
</style>
<g id="UFMG-colorido">
	<path d="M443.1,74.4V45.6c0-2.7-2.2-3.5-4.5-3.7v-2.5h17.5v2.5c-2.2,0.2-4.1,0.9-4.1,3.5v28.5c0,9.6,6,13.5,14,13.5
		c14.7,0,14.7-11.4,14.7-21.9V53.1c0-8.9-0.8-10.9-5.3-11.2v-2.5h14.8v2.5c-2.7,0.3-4.6,1.6-4.6,7.3v21.3c0,12-5.8,21.3-21.1,21.3
		C451.2,91.7,443.1,86.6,443.1,74.4"/>
	<path d="M519.5,84.4v-38c0-3.2-1.8-4.2-5-4.5v-2.8c5.9,0.1,11.7,0.2,17.6,0.2c9.9,0,16-0.1,22.1-0.2l0.3,8.3h-2.8
		c-1.5-4.3-4.3-4.9-12-4.9h-11.2v19.8h9.8c4.3,0,6.6-0.1,7.3-3.5h2.1v10.1h-2.2c-0.7-2.9-2.6-3.2-7.2-3.2h-9.8v16.7
		c0,5.2,2,6.6,6.4,6.7v2.5h-20.5V89C517.7,88.7,519.5,87.6,519.5,84.4"/>
	<path d="M733.9,76.1v3.4v9.9c-5.2,1.4-12.1,3-19.7,3c-16.9,0-28.7-11.8-28.7-26.5c0-16.8,13-27.4,29.4-27.4c2.7,0,4.9,0.3,9.9,0.9
		c1.4,0.2,8.2,1.5,9.6,1.8l0.7,9.7h-3.4c-2.4-4.8-5.7-9-14.8-9c-11.4,0-21.1,6.9-21.1,23.7c0,9.8,5.5,23.5,22.1,23.5
		c2.6,0,5-0.6,7.4-1.7c0-0.9,0.2-6.7,0.2-8.1c0-4.6-0.5-6.6-4.3-7.2v-2.6h16.4v2.4C734.7,72.3,733.9,73.2,733.9,76.1"/>
	<path class="st0" d="M662.9,76.1c-1.7,1.8-7.8,7.1-9.9,7.1c-0.8,0-1.8-0.4-1.8-1.4c0-1.3,1-3.5,1.6-5.3l9.1-26.6
		c0.6-1.6,1.1-3.8,1.1-5.6c0-2.5-1-4.7-4.5-4.7c-10.8,0-27.8,19.1-33.9,26.8h-0.2l5.4-16.9c0.7-2,1.2-4.3,1.2-6.1
		c0-2.2-1.6-3.7-5.1-3.7c-10.1,0-26.9,18.7-32.3,26.6h-0.2l5.9-17.1c0.5-1.4,1.3-3.5,1.3-5.5c0-2.1-1.1-4-3.9-4
		c-7.5,0-15.4,9.1-19.7,14.4c0,0-1.1,1.3-0.2,2.1c1,0.9,1.9,0,1.9,0l3.1-3.4c2-2,4.2-4,6.6-4c1.4,0,1.8,1,1.8,2.3
		c0,1-0.3,2.1-0.5,2.8l-11.8,35.7c-0.3,1.3,2.2,2,3.3,2c2.9,0,4.2-0.9,4.5-1.8l2-6c3.1-8.6,7.9-16.5,14.2-23.2
		c3.6-4,10.4-11.9,16.6-11.9c1.6,0,2.2,1.3,2.2,2.8c0,2.9-1.6,7.3-1.9,8.4l-9.9,29.6c-0.2,0.9,0.8,2.2,3.9,2.2c2.8,0,3.6-1,4-2
		l1.9-4.6c3.2-8.2,6.4-14.1,11.7-20.6c3.6-4.4,14-15.9,19.9-15.9c1.2,0,2.6,0.9,2.6,2.7c0,1.1-0.7,3.1-1.2,4.7l-9.2,26.3
		c-0.8,2.3-1.4,4.1-1.4,5.3c0,2.9,2.1,3.8,4.2,3.8c6.2,0,11.6-5.1,16-10l3.5-3.9c0,0,1-1,0-1.8C663.6,75.3,662.9,76.1,662.9,76.1"/>
	<rect x="578.4" y="106.5" class="st0" width="78.5" height="18.9"/>
</g>
<g id="DCC-Color">
	<g>
		<path d="M314.8,39.7c2.1,0.7,3.8,1.8,5.1,3.5c1.2,1.7,1.9,4.1,1.9,7.2c0,3.1-0.7,5.6-2.2,7.4c-1.5,1.8-2.9,2.9-4.1,3.2
			c-1.3,0.3-2.3,0.5-3,0.5c-0.7,0.1-1.6,0.1-2.5,0.1h-6.2V39.1h5c1.4,0,2.6,0,3.5,0.1C313.1,39.3,313.9,39.5,314.8,39.7z
			 M315.2,44.9c-1-1.5-2.5-2.2-4.5-2.2h-2.4V58h3c0.3,0,0.6,0,0.9,0c0.4,0,0.9-0.2,1.6-0.6c0.7-0.4,1.4-1.1,1.9-2.1s0.8-2.5,0.8-4.4
			C316.5,48.2,316.1,46.3,315.2,44.9z"/>
		<path d="M337.1,62c-1.6,0-3-0.2-4.3-0.6s-2.7-1.4-4.3-3s-2.4-4.1-2.4-7.6c0-2.8,0.6-5.1,1.7-6.8c1.1-1.8,2.5-3.1,4.1-4
			s3.4-1.3,5.4-1.3c1.2,0,2.4,0.2,3.5,0.5s2,0.7,2.8,1.3l-2.2,3.1c-1.3-0.8-2.6-1.2-4-1.2c-1,0-1.9,0.2-2.7,0.6
			c-0.8,0.4-1.6,1.1-2.3,2.1s-1,2.7-1,5.1c0,1.6,0.1,2.9,0.3,3.8c0.2,0.9,0.7,1.9,1.6,2.9s2.3,1.5,4.3,1.5c1.5,0,3-0.5,4.4-1.4
			l2.2,2.8C342.2,61.3,339.9,62,337.1,62z"/>
		<path d="M357.7,62c-1.6,0-3-0.2-4.3-0.6s-2.7-1.4-4.3-3s-2.4-4.1-2.4-7.6c0-2.8,0.6-5.1,1.7-6.8c1.1-1.8,2.5-3.1,4.1-4
			s3.4-1.3,5.4-1.3c1.2,0,2.4,0.2,3.5,0.5s2,0.7,2.8,1.3l-2.2,3.1c-1.3-0.8-2.6-1.2-4-1.2c-1,0-1.9,0.2-2.7,0.6
			c-0.8,0.4-1.6,1.1-2.3,2.1s-1,2.7-1,5.1c0,1.6,0.1,2.9,0.3,3.8c0.2,0.9,0.7,1.9,1.6,2.9s2.3,1.5,4.3,1.5c1.5,0,3-0.5,4.4-1.4
			l2.2,2.8C362.8,61.3,360.5,62,357.7,62z"/>
	</g>
	<g>
		<path d="M168.6,112.2c1.3,0.4,2.3,1.1,3.1,2.1c0.7,1,1.1,2.4,1.1,4.3s-0.4,3.4-1.3,4.5c-0.9,1.1-1.7,1.7-2.5,1.9s-1.4,0.3-1.8,0.3
			c-0.4,0-0.9,0.1-1.5,0.1H162v-13.5h3c0.8,0,1.6,0,2.1,0.1C167.6,112,168.1,112.1,168.6,112.2z M168.8,115.3
			c-0.6-0.9-1.5-1.3-2.7-1.3h-1.5v9.2h1.8c0.2,0,0.3,0,0.5,0s0.5-0.1,1-0.4c0.4-0.2,0.8-0.6,1.1-1.3c0.3-0.6,0.5-1.5,0.5-2.7
			C169.6,117.4,169.4,116.2,168.8,115.3z"/>
		<path d="M176.5,125.4v-13.5h8.5l-0.4,2.2h-5.3v3.2h4.4v2.2h-4.4v3.6h5.9v2.3L176.5,125.4L176.5,125.4z"/>
		<path d="M197.2,119.6c-0.5,0.3-1.1,0.5-1.6,0.6s-1.1,0.2-1.9,0.2h-1.8v5H189v-13.5h3.9c1.2,0,2.1,0,2.6,0.1s1.1,0.3,1.6,0.6
			c0.6,0.3,1.1,0.7,1.4,1.3c0.4,0.6,0.6,1.3,0.6,2.1c0,0.8-0.2,1.6-0.6,2.2C198.3,118.8,197.8,119.3,197.2,119.6z M191.8,114v4.2
			h1.9c0.9,0,1.6-0.2,1.9-0.6c0.3-0.4,0.5-0.9,0.5-1.5s-0.2-1.1-0.6-1.5c-0.4-0.4-1.1-0.6-2-0.6H191.8L191.8,114z"/>
		<path d="M210.4,125.4l-1.2-3.2h-4.6l-1.1,3.2h-2.9l5-13.5h3.1l4.8,13.5H210.4z M207,114.5c-0.1,0.3-0.3,1.1-0.7,2.3
			c-0.4,1.2-0.7,2.3-1,3.2h3.3c-0.5-1.5-0.8-2.7-1.1-3.7S207.1,114.7,207,114.5z"/>
		<path d="M223.3,125.4l-1.3-2.2c-0.7-1.1-1.1-1.8-1.4-2.2s-0.6-0.7-0.8-0.9c-0.3-0.2-0.6-0.4-1-0.4v5.6H216v-13.5h4.6
			c0.9,0,1.7,0.1,2.3,0.2s1.3,0.5,1.9,1.1c0.7,0.6,1,1.5,1,2.7c0,1-0.3,1.9-0.9,2.6c-0.6,0.7-1.4,1.1-2.4,1.2
			c0.2,0.2,0.5,0.4,0.8,0.8s0.6,0.7,0.8,1s0.5,0.7,0.8,1.2l1.9,2.7L223.3,125.4L223.3,125.4z M218.8,114v3.7h1.2
			c1.1,0,1.9-0.2,2.3-0.5c0.4-0.3,0.6-0.8,0.6-1.4c0-0.9-0.2-1.4-0.7-1.5c-0.5-0.2-0.9-0.2-1.1-0.3c-0.2,0-0.6-0.1-0.9-0.1
			L218.8,114L218.8,114z"/>
		<path d="M238.7,114.2H235v11.2h-2.8v-11.2h-3.7v-2.3h10.7L238.7,114.2z"/>
		<path d="M249.6,125.4l-1.2-3.2h-4.6l-1.1,3.2h-2.9l5-13.5h3.1l4.8,13.5H249.6z M246.2,114.5c-0.1,0.3-0.3,1.1-0.7,2.3
			c-0.4,1.2-0.7,2.3-1,3.2h3.3c-0.5-1.5-0.8-2.7-1.1-3.7S246.2,114.7,246.2,114.5z"/>
		<path d="M267.2,125.4l-0.6-7.6l-0.2-2.6l-0.7,2.6l-2.4,7.6H261l-2.3-7.5c0-0.1-0.1-0.5-0.3-1.3s-0.3-1.3-0.4-1.6l-0.1,2.8
			l-0.6,7.5h-2.8l1.4-13.5h3.6l2.1,6.9c0.1,0.4,0.2,0.8,0.3,1.1c0.1,0.3,0.2,0.8,0.3,1.5c0-0.3,0.1-0.7,0.2-1.2s0.3-1,0.4-1.5
			l2.1-6.9h3.7l1.3,13.5L267.2,125.4z"/>
		<path d="M273.9,125.4v-13.5h8.5l-0.4,2.2h-5.3v3.2h4.4v2.2h-4.4v3.6h5.9v2.3L273.9,125.4L273.9,125.4z"/>
		<path d="M293.9,125.4l-3.3-6.2c-0.3-0.6-0.7-1.3-1-2s-0.5-1.2-0.7-1.5l0.1,3.8l0.1,5.9h-2.7v-13.5h3.1l3.4,6.1
			c0.3,0.5,0.6,1.1,0.8,1.7c0.3,0.6,0.5,1.1,0.6,1.5c0-0.1,0-0.7-0.1-1.6c-0.1-1-0.1-1.6-0.1-1.9V112h2.6v13.5L293.9,125.4
			L293.9,125.4z"/>
		<path d="M310.2,114.2h-3.7v11.2h-2.8v-11.2H300v-2.3h10.7L310.2,114.2z"/>
		<path d="M314.2,123.9c-1.3-1.3-1.9-3-1.9-5.2s0.6-3.9,1.7-5.1s2.7-1.9,4.7-1.9c2.1,0,3.7,0.6,4.8,1.9c1.1,1.3,1.6,2.9,1.6,5
			s-0.4,3.6-1.1,4.5c-0.8,0.9-1.5,1.6-2.3,1.9s-1.7,0.5-2.8,0.5C316.9,125.6,315.4,125,314.2,123.9z M321.5,121.6
			c0.2-0.7,0.4-1.7,0.4-2.9c0-0.8,0-1.4-0.1-1.9s-0.3-1.1-0.6-1.9c-0.3-0.8-1.2-1.1-2.6-1.1c-1.2,0-2.1,0.4-2.5,1.3s-0.7,2-0.7,3.5
			c0,1.6,0.2,2.9,0.7,3.7c0.5,0.8,1.3,1.2,2.6,1.2c0.7,0,1.3-0.1,1.8-0.4S321.3,122.3,321.5,121.6z"/>
		<path d="M341.3,112.2c1.3,0.4,2.3,1.1,3.1,2.1c0.7,1,1.1,2.4,1.1,4.3s-0.4,3.4-1.3,4.5s-1.7,1.7-2.5,1.9s-1.4,0.3-1.8,0.3
			s-0.9,0.1-1.5,0.1h-3.7v-13.5h3c0.8,0,1.6,0,2.1,0.1C340.2,112,340.8,112.1,341.3,112.2z M341.5,115.3c-0.6-0.9-1.5-1.3-2.7-1.3
			h-1.5v9.2h1.8c0.2,0,0.3,0,0.5,0s0.5-0.1,1-0.4c0.4-0.2,0.8-0.6,1.2-1.3c0.3-0.6,0.5-1.5,0.5-2.7
			C342.3,117.4,342.1,116.2,341.5,115.3z"/>
		<path d="M349.2,125.4v-13.5h8.5l-0.4,2.2H352v3.2h4.4v2.2H352v3.6h5.9v2.3L349.2,125.4L349.2,125.4z"/>
		<path d="M111,156.1c-0.9,0-1.8-0.1-2.6-0.4c-0.8-0.3-1.6-0.8-2.6-1.8c-1-0.9-1.4-2.4-1.4-4.6c0-1.7,0.3-3,1-4.1s1.5-1.9,2.5-2.4
			s2.1-0.8,3.2-0.8c0.7,0,1.5,0.1,2.1,0.3s1.2,0.4,1.7,0.8l-1.3,1.8c-0.8-0.5-1.6-0.7-2.4-0.7c-0.6,0-1.1,0.1-1.6,0.4
			s-0.9,0.7-1.4,1.2c-0.4,0.6-0.6,1.6-0.6,3.1c0,1,0.1,1.8,0.2,2.3c0.1,0.6,0.4,1.1,1,1.8c0.5,0.6,1.4,0.9,2.6,0.9
			c0.9,0,1.8-0.3,2.6-0.8l1.3,1.7C114,155.7,112.6,156.1,111,156.1z"/>
		<path d="M117.8,155.9v-13.5h2.9v13.5H117.8z"/>
		<path d="M133.1,141.8l-3.5-2.1l-3.4,2.1l-1-1.6l4.4-3.5l4.5,3.5L133.1,141.8z M125.3,155.9v-13.5h8.5l-0.4,2.2H128v3.2h4.4v2.2
			H128v3.6h5.9v2.3L125.3,155.9L125.3,155.9z"/>
		<path d="M145.3,155.9l-3.3-6.2c-0.3-0.6-0.7-1.3-1-2s-0.5-1.2-0.7-1.5l0.1,3.8l0.1,5.9h-2.7v-13.5h3.1l3.4,6.1
			c0.3,0.5,0.6,1.1,0.8,1.7s0.5,1.1,0.6,1.5c0-0.1,0-0.7-0.1-1.6c-0.1-1-0.1-1.6-0.1-1.9v-5.7h2.6V156L145.3,155.9L145.3,155.9z"/>
		<path d="M158.2,156.1c-0.9,0-1.8-0.1-2.6-0.4s-1.6-0.8-2.6-1.8c-1-0.9-1.4-2.4-1.4-4.6c0-1.7,0.3-3,1-4.1s1.5-1.9,2.5-2.4
			s2.1-0.8,3.2-0.8c0.7,0,1.5,0.1,2.1,0.3s1.2,0.4,1.7,0.8l-1.3,1.8c-0.8-0.5-1.6-0.7-2.4-0.7c-0.6,0-1.1,0.1-1.6,0.4
			s-0.9,0.7-1.4,1.2c-0.4,0.6-0.6,1.6-0.6,3.1c0,1,0.1,1.8,0.2,2.3c0.1,0.6,0.4,1.1,1,1.8c0.5,0.6,1.4,0.9,2.6,0.9
			c0.9,0,1.8-0.3,2.6-0.8l1.3,1.7C161.3,155.7,159.9,156.1,158.2,156.1z"/>
		<path d="M165.1,155.9v-13.5h2.9v13.5H165.1z"/>
		<path d="M180.3,155.9l-1.2-3.2h-4.6l-1.1,3.2h-2.9l5-13.5h3.1l4.8,13.5H180.3z M176.9,145c-0.1,0.3-0.3,1.1-0.7,2.3
			c-0.4,1.2-0.7,2.3-1,3.2h3.3c-0.5-1.5-0.8-2.7-1.1-3.7S177,145.3,176.9,145z"/>
		<path d="M198.4,142.8c1.3,0.4,2.3,1.1,3.1,2.1c0.7,1,1.1,2.4,1.1,4.3s-0.4,3.4-1.3,4.5c-0.9,1.1-1.7,1.7-2.5,1.9s-1.4,0.3-1.8,0.3
			c-0.4,0-0.9,0.1-1.5,0.1h-3.7v-13.5h3c0.8,0,1.6,0,2.1,0.1C197.4,142.5,197.9,142.6,198.4,142.8z M198.7,145.9
			c-0.6-0.9-1.5-1.3-2.7-1.3h-1.5v9.2h1.8c0.2,0,0.3,0,0.5,0s0.5-0.1,1-0.4c0.4-0.2,0.8-0.6,1.1-1.3c0.3-0.6,0.5-1.5,0.5-2.7
			C199.5,147.9,199.2,146.7,198.7,145.9z"/>
		<path d="M214.2,155.9l-1.2-3.2h-4.6l-1.1,3.2h-2.9l5-13.5h3.1l4.8,13.5H214.2z M210.8,145c-0.1,0.3-0.3,1.1-0.7,2.3
			c-0.4,1.2-0.7,2.3-1,3.2h3.3c-0.5-1.5-0.8-2.7-1.1-3.7S210.8,145.3,210.8,145z"/>
		<path d="M231.1,156.1c-0.9,0-1.8-0.1-2.6-0.4s-1.6-0.8-2.6-1.8c-1-0.9-1.4-2.4-1.4-4.6c0-1.7,0.3-3,1-4.1s1.5-1.9,2.5-2.4
			s2.1-0.8,3.2-0.8c0.7,0,1.5,0.1,2.1,0.3s1.2,0.4,1.7,0.8l-1.3,1.8c-0.8-0.5-1.6-0.7-2.4-0.7c-0.6,0-1.1,0.1-1.6,0.4
			s-0.9,0.7-1.4,1.2c-0.4,0.6-0.6,1.6-0.6,3.1c0,1,0.1,1.8,0.2,2.3c0.1,0.6,0.4,1.1,1,1.8c0.5,0.6,1.4,0.9,2.6,0.9
			c0.9,0,1.8-0.3,2.6-0.8l1.3,1.7C234.2,155.7,232.8,156.1,231.1,156.1z"/>
		<path d="M239,154.4c-1.3-1.3-1.9-3-1.9-5.2s0.6-3.9,1.7-5.1c1.1-1.2,2.7-1.9,4.7-1.9c2.1,0,3.7,0.6,4.8,1.9s1.6,2.9,1.6,5
			s-0.4,3.6-1.1,4.5s-1.5,1.6-2.3,1.9s-1.7,0.5-2.8,0.5C241.6,156.1,240.1,155.6,239,154.4z M246.3,152.1c0.2-0.7,0.4-1.7,0.4-2.9
			c0-0.8,0-1.4-0.1-1.9s-0.3-1.1-0.6-1.9s-1.2-1.1-2.6-1.1c-1.2,0-2.1,0.4-2.5,1.3s-0.7,2-0.7,3.5c0,1.6,0.2,2.9,0.7,3.7
			c0.5,0.8,1.3,1.2,2.6,1.2c0.7,0,1.3-0.1,1.8-0.4C245.7,153.3,246,152.8,246.3,152.1z"/>
		<path d="M265.5,155.9l-0.6-7.6l-0.2-2.6l-0.7,2.6l-2.4,7.6h-2.4l-2.3-7.5c0-0.1-0.1-0.5-0.3-1.3s-0.3-1.3-0.4-1.6l-0.1,2.8
			l-0.6,7.5h-2.8l1.4-13.5h3.6l2.1,6.9c0.1,0.4,0.2,0.8,0.3,1.1c0.1,0.3,0.2,0.8,0.3,1.5c0-0.3,0.1-0.7,0.2-1.2s0.3-1,0.4-1.5
			l2.1-6.9h3.7l1.3,13.5L265.5,155.9z"/>
		<path d="M280.3,150.2c-0.5,0.3-1.1,0.5-1.6,0.6s-1.1,0.2-1.9,0.2H275v5h-2.8v-13.5h3.9c1.2,0,2.1,0,2.6,0.1s1.1,0.3,1.6,0.6
			c0.6,0.3,1.1,0.7,1.4,1.3c0.4,0.6,0.6,1.3,0.6,2.1c0,0.8-0.2,1.6-0.6,2.2C281.4,149.4,280.9,149.8,280.3,150.2z M275,144.6v4.2
			h1.9c0.9,0,1.6-0.2,1.9-0.6s0.5-0.9,0.5-1.5s-0.2-1.1-0.6-1.5s-1.1-0.6-2-0.6H275L275,144.6z"/>
		<path d="M295.1,154.8c-0.4,0.4-1,0.7-1.7,1c-0.7,0.2-1.5,0.4-2.4,0.4c-1.2,0-2.2-0.2-3-0.5s-1.3-0.8-1.7-1.3s-0.5-0.9-0.6-1.4
			c-0.1-0.4-0.1-1-0.1-1.7v-8.9h2.8v8.5c0,0.9,0.1,1.7,0.4,2.2s1,0.8,2.1,0.8c0.9,0,1.5-0.2,1.8-0.5s0.5-0.7,0.5-1
			c0.1-0.3,0.1-0.8,0.1-1.4v-8.6h2.9v8.8c0,1-0.1,1.8-0.2,2.2C295.9,153.9,295.6,154.4,295.1,154.8z"/>
		<path d="M309.6,144.7h-3.7v11.2h-2.8v-11.2h-3.7v-2.3H310L309.6,144.7z"/>
		<path d="M320.4,155.9l-1.2-3.2h-4.6l-1.1,3.2h-2.9l5-13.5h3.1l4.8,13.5H320.4z M317,145c-0.1,0.3-0.3,1.1-0.7,2.3
			c-0.4,1.2-0.7,2.3-1,3.2h3.3c-0.5-1.5-0.8-2.7-1.1-3.7S317.1,145.3,317,145z"/>
		<path d="M331.9,156.1l-0.2,0.6c0.6,0.1,1,0.3,1.3,0.6c0.3,0.4,0.4,0.8,0.4,1.3c0,0.6-0.2,1.1-0.7,1.5s-1.1,0.6-1.9,0.6
			c-0.3,0-0.7-0.1-1.1-0.2s-0.8-0.3-1-0.4l0.7-1.4c0.2,0.1,0.4,0.1,0.6,0.2s0.5,0.1,0.8,0.1c0.2,0,0.4-0.1,0.5-0.2s0.2-0.3,0.2-0.4
			c0-0.2-0.1-0.4-0.2-0.5s-0.3-0.2-0.6-0.2c-0.3,0.1-0.5,0.1-0.7,0.1l-0.3-0.4l0.5-1.7c-1.2-0.2-2.3-0.7-3.2-1.4
			c-1.4-1.3-2.1-3-2.1-5.2c0-1.7,0.3-3,1-4.1s1.5-1.9,2.5-2.4s2-0.8,3.2-0.8c0.7,0,1.5,0.1,2.1,0.3c0.7,0.2,1.2,0.4,1.7,0.8
			l-1.3,1.8c-0.8-0.5-1.6-0.7-2.4-0.7c-0.6,0-1.1,0.1-1.6,0.4s-1,0.7-1.4,1.2s-0.6,1.6-0.6,3.1c0,1.8,0.3,3.1,1,3.8
			c0.6,0.8,1.6,1.2,2.8,1.2c0.5,0,0.9-0.1,1.3-0.2s0.8-0.3,1.3-0.7l1.3,1.7c-0.5,0.4-1.1,0.7-1.8,1S332.7,156.1,331.9,156.1z"/>
		<path d="M346.5,155.9l-1.2-3.2h-4.6l-1.1,3.2h-2.9l5-13.5h3.1l4.8,13.5H346.5z M345,138.8c0.4,0,0.6-0.1,0.9-0.2
			c0.2-0.1,0.5-0.4,0.8-0.7l0.9,1.6c-0.5,0.6-0.9,1-1.4,1.3c-0.4,0.3-1,0.4-1.7,0.4c-0.5,0-1.1-0.2-1.7-0.5s-1.1-0.5-1.6-0.5
			c-0.4,0-0.6,0.1-0.9,0.2c-0.2,0.1-0.5,0.4-0.8,0.7l-0.9-1.6c0.5-0.6,0.9-1,1.3-1.3s1-0.4,1.7-0.4c0.5,0,1.1,0.2,1.7,0.5
			C344,138.6,344.5,138.8,345,138.8z M343.1,145c-0.1,0.3-0.3,1.1-0.7,2.3c-0.4,1.2-0.7,2.3-1,3.2h3.3c-0.5-1.5-0.8-2.7-1.1-3.7
			S343.1,145.3,343.1,145z"/>
		<path d="M353.1,154.4c-1.3-1.3-1.9-3-1.9-5.2s0.6-3.9,1.7-5.1s2.7-1.9,4.7-1.9c2.1,0,3.7,0.6,4.8,1.9c1.1,1.3,1.6,2.9,1.6,5
			s-0.4,3.6-1.1,4.5c-0.8,0.9-1.5,1.6-2.3,1.9s-1.7,0.5-2.8,0.5C355.7,156.1,354.2,155.6,353.1,154.4z M360.4,152.1
			c0.2-0.7,0.4-1.7,0.4-2.9c0-0.8,0-1.4-0.1-1.9s-0.3-1.1-0.6-1.9c-0.3-0.8-1.2-1.1-2.6-1.1c-1.2,0-2.1,0.4-2.5,1.3s-0.7,2-0.7,3.5
			c0,1.6,0.2,2.9,0.7,3.7c0.5,0.8,1.3,1.2,2.6,1.2c0.7,0,1.3-0.1,1.8-0.4S360.1,152.8,360.4,152.1z"/>
	</g>
	<rect x="287.7" y="76.2" class="st0" width="77.7" height="18.7"/>
</g>
</svg>
