<?xml version="1.0" encoding="UTF-8"?>
<svg id="Camada_2" data-name="Camada 2" xmlns="http://www.w3.org/2000/svg" version="1.1" viewBox="0 0 699.7 704.2">
  <defs>
    <style>
      .cls-1 {
        fill: #ec7637;
      }

      .cls-1, .cls-2, .cls-3, .cls-4, .cls-5, .cls-6 {
        stroke-width: 0px;
      }

      .cls-2 {
        fill: #4cb4d9;
      }

      .cls-3 {
        fill: #0d415e;
      }

      .cls-4 {
        fill: #082f49;
      }

      .cls-5 {
        fill: #3e7699;
      }

      .cls-6 {
        fill: #355066;
      }
    </style>
  </defs>
  <path class="cls-3" d="M670.9,459.8c-1-11.8.3-22.4,2.2-32.9,2.8-15.9,4.4-31.8,5.7-47.9,1.3-16,1.5-31.9,1-47.9-1-31.8-8.3-62.3-18.4-92.3-17-50.2-46.3-92.4-84.8-128.4-43.3-40.5-94.5-66.6-151.8-80.8-31.7-7.8-64.1-10.3-96.6-8.2-57.9,3.9-111.8,20.8-160.3,52.8C95.7,122.1,48.3,187.8,27.8,272.6c-7.9,32.7-9.7,65.7-7.7,99.1,2,33,8.3,65.2,19,96.5.4,1.2,1.3,2.4.3,4-9.3-4.9-16.7-11-20.4-21.6-8.5-24.3-14.9-49-17.3-74.8-1.1-12.8-2-25.5-1.6-38.3,1.8-69.1,21.9-132.3,62-188.9,41.3-58.2,95.7-99.6,162.1-125.4,28.5-11.1,58-17.7,88.3-21.1C330.1,0,347.7-.5,365.3.4c43,2.1,84.3,11.9,123.9,29.3,75,32.9,132.7,84.7,171.2,157.2,17.7,33.3,29.2,68.8,35,106,3,18.7,5.1,37.7,4,56.6-1.8,32.9-6.7,65.4-20.5,95.8-1.4,3.2-3.1,6.2-4.8,9.3-.8,1.5-1.9,3-3.3,5.2h0Z"/>
  <path class="cls-3" d="M515.2,464.7c-7.8-12.3-15.6-24.7-23.5-36.9-1-1.6-.9-3.1-.9-4.8,0-73.3,0-146.6,0-219.9,0-3.1-.9-4.6-3.7-5.9-34-15.6-68-31.1-101.8-46.9-39.1-18.3-78.2-36.6-117-55.7-3.1-1.5-5.3-3.6-7.1-6.6-5-8.6-10.4-17-15.5-25.5-1-1.6-1.8-3.3-3.4-6.2,7.4,3.3,13.6,6,19.7,8.9,82.8,38,165.6,76,248.4,113.8,5,2.3,6.5,4.8,6.4,10.2-.2,85.3-.2,170.6-.3,255.9v19.4c-.5,0-1,.2-1.4.3h0Z"/>
  <path class="cls-1" d="M607.7,294.7c0-5.6.1-11.2.2-16.7.7-.6,1.3-1.3,2-1.9.3.8.5,1.7.8,2.5-.3,1.5-.6,3,.5,4.3.2,1.1.4,2.1.6,3.2h-.2c0,.1.2.1.2.1,4.9,27,5.8,54.3,3.8,81.5-4.6,61.7-24.1,118.2-60.1,168.8-24.7,34.7-55.1,63.1-90.9,85.9-15.8,10-32.4,18.5-49.5,25.8-1.2.5-2.5.6-3.8.9.3-1.6,1.6-2.5,2.7-3.5,27.7-24,52.1-51,73.5-80.8.8-1.2,3-2,1.6-4.1,17.9-14.9,33.2-32.1,47-50.7,23.8-32.4,42.5-67.4,54.7-105.9,7.2-22.7,11.4-46.1,14-69.7,1.4-13.2,2.9-26.4,2.9-39.8h.4c0,0-.4.1-.4.1h0Z"/>
  <path class="cls-3" d="M489.1,560.7c1.4,2.1-.8,2.9-1.6,4.1-21.4,29.8-45.8,56.8-73.5,80.8-1.1,1-2.4,1.8-2.7,3.5h0c-.8,0-1.4.3-1.8,1-17.6,8.4-36.1,14-55.1,18-16.1,3.4-32.3,5.3-48.7,6.3-49.1,3-95.1-6.5-136.6-33.9-8.7-5.7-17.1-11.8-24.7-19,1.9-.7,3.1.8,4.5,1.5,22.8,11.8,47,19.3,72.4,22.2,62.2,6.9,121.2-5.3,178-30.2,30.3-13.3,58.2-30.5,84.6-50.3,1.7-1.3,3.5-2.5,5.2-3.8h0Z"/>
  <path class="cls-6" d="M599.6,517.7c2.9-6,5.7-11.9,8.8-17.8,8-15.6,13.9-32,19-48.7.8-2.6,1.1-5.4,3.7-8.1,1,5.1-1.3,9.4.2,14.7,6.4-26,7.4-51.9,10.8-78.3,3.7,8.7,4.5,17.3,5.4,25.7,1.5,13.2,2.7,26.5,2.1,39.7-1.6,38-10.4,74.1-28.8,107.7-15.1,27.5-35,51.2-57.8,72.5-16.8,15.7-35.5,29.1-55.6,40.3-14.1,7.8-29,13.9-44.1,19.8-.9.3-1.9.3-2.9.5.8-.6,1.5-1.3,2.3-1.8,26.4-14.5,49.8-32.9,71.6-53.6,23.7-22.5,43-48.5,59.8-76.3,4-6.6,9.5-12.7,10.7-20.9,1.8-.6,2.3-2.2,2.8-3.8,1.6-4.6,3.2-9.3,4.8-13.9,1.8-5.2,2.6-10.4,0-16-.8,2-1,4-2.1,5-3.8,3.2-5.7,7.3-7,11.9-.5,1.7-2.2,1.8-3.8,1.3h0Z"/>
  <path class="cls-3" d="M348,347.4c6,1.1,10.9,4.8,16,7.7,11.2,6.1,22.1,12.8,32.3,21.9-7.6.7-14.6,1-21.6,1.9-22.1,3-43.4,8.9-64.5,15.8-53.6,17.5-105.8,38.5-157.5,60.8-3.1,1.4-6.3,2.7-9.6,3.8,15.4-17.6,32.8-32.7,52.7-44.9,2.1.3,3.8-1,5.6-1.8,21.4-9.8,42.7-19.7,64.2-29.4,25.6-11.6,51.4-22.5,77.6-32.6,1.8-.7,4-.9,4.7-3.2h0Z"/>
  <path class="cls-4" d="M137.4,526.4c12.4,27,34.5,42.8,61.6,52.5,29.3,10.5,59.7,12.5,90.4,10.5,36.4-2.3,71.9-9.5,106.9-19.3.6-.2,1.3-.1,2.8-.2-15.5,11-31.5,19-48.5,25.1-28.4,10.2-57.5,16.6-87.6,18.4-34.4,2.1-67.6-2.1-99.2-16.2-3-1.3-6.1-2.8-8.5-5.1,0-.8-.5-1.2-1.3-1.2,0-1.4-.7-2.5-1.4-3.7-6.8-11.7-12-24.1-14.2-37.6-1.2-7.6-3.1-15.3-1.1-23.2h0Z"/>
  <path class="cls-2" d="M405.4,238.1c-13.9,9.3-27.3,18.2-40.7,27.2-1.5,1-2.9,1.3-4.7.5-26.5-13-53.9-24.4-79.9-38.7-4.4-2.4-6-4.8-4.5-10,4.5-16.3,6-33.2,6.6-51.5,38.8,28.7,80.9,49.9,123.1,72.6h0Z"/>
  <path class="cls-2" d="M604.9,533.2c-1.3,8.1-6.7,14.2-10.7,20.9-16.8,27.8-36.1,53.8-59.8,76.3-21.8,20.7-45.2,39.1-71.6,53.6-.8.5-1.5,1.2-2.3,1.8-.2,0-.5,0-.6.3-.5.2-.9.4-1.4.6-.2,0-.5.1-.6.3-.9-.1-1.7,0-2.2.9-3.3,1.1-6.3,2.8-9.8,3.2-3.9-7.8-7.6-15.7-12.8-22.8,19.9-9.2,39.1-19.9,57.1-32.5,30.8-21.6,58-47,81.4-76.6,8.7-11,16.5-22.5,24.1-34.1,2.3,3.7,6.2,5.4,9.3,8.2h0Z"/>
  <path class="cls-1" d="M274.8,120.2c20.8,9.9,40.6,19.4,60.4,28.8,33.7,15.9,67.5,31.6,101.2,47.4,6,2.8,12,5.8,18,8.7.9.4,2.1.7,2.1,1.9,0,1.1-1.2,1.5-2.1,1.9-9.4,4.7-18.2,10.3-27.2,15.7-1.8,1.1-3,1.1-4.9,0-21.6-11.8-43.4-23.2-64.8-35.3-25.8-14.6-51.2-30.1-74.5-48.6-1.9-1.5-3.2-3.4-3.9-5.6-1.5-4.5-2.7-9.2-4.3-14.8h0Z"/>
  <path class="cls-2" d="M362.6,291.1c14.4-9.8,28.9-19.5,43.3-29.5,2.5-1.8,3.7-1.7,4.9,1.3,7,17.4,14.3,34.7,21.4,52.1,9.5,23.2,18.9,46.5,28.3,69.8.7,1.8,1.7,3.6,1.5,5.7-.2,2.1,3,4.6.6,6-1.6.9-3.7-2.1-5.2-3.6-6.4-6.1-14.4-10.2-20.4-16.7-.7-3.2-2.7-5.7-4.4-8.3-15.4-24.2-34.3-45.3-55.8-64.2-4.7-4.1-10.4-7.2-14.1-12.5h0Z"/>
  <path class="cls-6" d="M269.2,244.4c1,.5,1.8.8,2.5,1.2,21.6,11.9,44.3,21.3,66.7,31.4,5.2,2.4,5.2,2.8.6,6.2-10,7.4-20,14.9-29.9,22.4-1.8,1.4-3.3,1.8-5.5.9-15.8-6.7-32.4-10.9-48.9-15.2-7.4-1.9-7-1.6-3.9-8.3,5.4-11.5,11.8-22.7,15.9-34.8.5-1.5.8-3.2,2.5-3.8h0Z"/>
  <path class="cls-1" d="M470.5,355.7c-9.6-24-19.2-48.1-28.9-72.1-4.3-10.6-8.6-21.3-13.2-31.8-1.3-3-.3-4.1,2-5.4,12.4-7.4,24.8-14.9,37.1-22.5,3.2-2,4.1-1.4,4.1,2.4,0,28.1,0,56.3,0,84.4,0,15,.4,29.9-1.1,45.1h0Z"/>
  <path class="cls-1" d="M348,347.4c-.8,2.3-2.9,2.5-4.7,3.2-26.2,10.1-52.1,21-77.6,32.6-21.4,9.7-42.8,19.6-64.2,29.4-1.8.8-3.5,2-5.6,1.8,11.1-10,23.2-18.8,35.1-27.7,23.7-17.9,47.7-35.5,71.3-53.5,4.7-3.6,8.4-4.4,13.7-1.5,10.5,5.6,22,9.2,32,15.9h0Z"/>
  <path class="cls-3" d="M287,320.9c-38.1,27.2-74.3,54.8-109.9,83.2-.3-.4-.6-.7-.9-1.1,7.9-11.6,15.9-23.2,23.7-34.9,12.1-17.9,23.4-36.2,34.5-54.6,1.8-2.9,3.4-3.5,6.7-2.8,14.8,2.8,29.5,6.2,45.8,10.2h0Z"/>
  <path class="cls-6" d="M362.6,291.1c3.7,5.3,9.4,8.4,14.1,12.5,21.5,18.9,40.4,40,55.8,64.2,1.7,2.6,3.7,5.1,4.4,8.3-4.1-.4-6.6-3.6-9.7-5.7-30.1-20.2-61-39.1-94.8-52.8-3.9-1.6-3.5-2.4-.5-4.5,10.3-7.2,20-15.3,30.7-22h0Z"/>
  <path class="cls-1" d="M137.4,526.4c-2,7.8-.2,15.5,1.1,23.2,2.2,13.4,7.4,25.8,14.2,37.6.7,1.2,1.4,2.2,1.4,3.7-4.7-.5-8-3.7-11.5-6.4-12.2-9.4-21.8-20.9-27.6-35.3-10-25.1-3.1-47.5,12-68.3,2.6-3.5,5.4-7,9.6-9.5-4.7,18.6-6,37,.7,55.2h0Z"/>
  <path class="cls-6" d="M415,698.8c-23.6,4.6-47.2,6.7-71.3,4.5-9.9-.9-19.7-2.1-30.9-3.7,14.9-2.7,28.5-4.6,42.1-7.2,14.1-2.7,27.6-7.1,41.5-10.7,1.1-.3,2.2-.5,3.4-.7,1.9,3.4,4.9,5.7,7.6,8.4,2.8,2.8,6.6,5,7.7,9.3h0Z"/>
  <path class="cls-4" d="M174.2,127c3.4,6.1,5.9,12.1,10.6,16.9,4.5,4.6,10.6,6.6,17.5,9.9-15.4,3.8-23.3,13.6-27.6,27.8-5.1-14-12.6-24.3-27.6-28.2,13.6-4.3,22-13.4,27.1-26.4h0Z"/>
  <path class="cls-4" d="M152.2,311.1c-13.9,3.9-21.5,13.3-26,27.5-5.2-13.7-12.6-23.7-26.8-27.2,12.6-4.9,21.7-12.9,26.4-27.6,5.1,13.9,12.9,23.3,26.5,27.3h0Z"/>
  <path class="cls-5" d="M415,698.8c-1.1-4.3-4.9-6.5-7.7-9.3-2.7-2.7-5.7-5-7.6-8.4,11.1-4.2,22.2-8.5,33.2-12.7,5.1,7.1,8.8,15,12.8,22.8-10,3.6-20.2,6.2-30.8,7.7h0Z"/>
  <path class="cls-5" d="M604.9,533.2c-3.1-2.8-7-4.6-9.3-8.2.9-2.7,2.3-5.1,4-7.3,1.6.5,3.3.4,3.8-1.3,1.3-4.6,3.3-8.7,7-11.9,1.1-.9,1.3-3,2.1-5,2.7,5.6,1.9,10.8,0,16-1.6,4.6-3.2,9.3-4.8,13.9-.5,1.6-1,3.2-2.8,3.8h0Z"/>
  <path class="cls-6" d="M609.9,276.1c-.7.6-1.3,1.3-2,1.9v-9.2c1.7,2.6,1.9,4.9,2,7.3h0Z"/>
  <path class="cls-6" d="M611.2,282.8c-1.2-1.3-.8-2.8-.5-4.3.2,1.4.4,2.9.5,4.3Z"/>
  <path class="cls-6" d="M611.8,286.1h-.2s.2-.1.2-.1h0Z"/>
  <path class="cls-1" d="M154.1,590.8c.8,0,1.2.5,1.3,1.2-.8,0-1.4-.3-1.3-1.2Z"/>
  <path class="cls-6" d="M455.5,687.8c.5-.8,1.3-1,2.2-.9-.5.9-1.2,1.1-2.2.9Z"/>
  <polygon class="cls-6" points="607.7 294.7 608.1 294.7 607.7 294.6 607.7 294.7"/>
  <path class="cls-1" d="M409.4,650c.4-.7,1-1.1,1.8-1-.4.7-1,1-1.8,1Z"/>
  <path class="cls-6" d="M458.4,686.6c.5-.2.9-.4,1.4-.6-.3.6-.8.8-1.4.6Z"/>
</svg>