<?xml version="1.0" encoding="UTF-8"?>
<svg id="Camada_2" data-name="Camada 2" xmlns="http://www.w3.org/2000/svg" viewBox="0 0 699.73 704.15">
  <defs>
    <style>
      .cls-1 {
        fill: #fafafb;
      }

      .cls-1, .cls-2, .cls-3, .cls-4, .cls-5 {
        stroke-width: 0px;
      }

      .cls-2 {
        fill: #4cb4d9;
      }

      .cls-3 {
        fill: #355066;
      }

      .cls-4 {
        fill: #3e7699;
      }

      .cls-5 {
        fill: #ec7637;
      }
    </style>
  </defs>
  <g id="Camada_1-2" data-name="Camada 1">
    <path class="cls-1" d="M670.91,459.82c-1.05-11.75.34-22.38,2.21-32.94,2.82-15.85,4.37-31.83,5.69-47.86,1.32-15.97,1.52-31.94,1.03-47.92-.97-31.76-8.26-62.32-18.37-92.28-16.96-50.25-46.33-92.38-84.81-128.37-43.31-40.51-94.45-66.62-151.77-80.76-31.68-7.81-64.06-10.34-96.57-8.18-57.87,3.86-111.81,20.82-160.31,52.84C95.67,122.11,48.26,187.82,27.8,272.58c-7.89,32.69-9.68,65.73-7.7,99.05,1.96,32.98,8.34,65.19,18.95,96.53.42,1.23,1.33,2.35.33,3.99-9.26-4.9-16.69-11.03-20.4-21.6-8.52-24.33-14.94-49.01-17.26-74.79-1.15-12.78-1.98-25.55-1.64-38.34,1.82-69.12,21.93-132.32,62.05-188.86,41.3-58.2,95.68-99.57,162.07-125.4,28.48-11.08,57.96-17.67,88.29-21.12,17.61-2,35.23-2.51,52.83-1.63,43.04,2.14,84.33,11.91,123.87,29.27,75.01,32.93,132.66,84.65,171.19,157.24,17.7,33.34,29.15,68.8,35.05,105.99,2.97,18.7,5.08,37.66,4.02,56.6-1.85,32.93-6.68,65.37-20.45,95.82-1.43,3.17-3.13,6.23-4.8,9.29-.83,1.53-1.86,2.95-3.3,5.19Z"/>
    <path class="cls-1" d="M515.21,464.73c-7.82-12.32-15.6-24.66-23.49-36.94-1-1.56-.86-3.13-.86-4.75-.02-73.3-.06-146.61.05-219.91,0-3.14-.9-4.56-3.72-5.85-33.99-15.55-67.98-31.11-101.84-46.93-39.12-18.29-78.22-36.62-116.96-55.72-3.12-1.54-5.3-3.56-7.06-6.59-5-8.61-10.36-17.01-15.54-25.5-.98-1.6-1.81-3.28-3.44-6.24,7.42,3.33,13.58,6.05,19.7,8.86,82.79,37.98,165.56,76.03,248.44,113.82,5.03,2.29,6.45,4.81,6.44,10.22-.25,85.3-.23,170.6-.27,255.9,0,6.46,0,12.92,0,19.38-.48.09-.96.17-1.43.26Z"/>
    <path class="cls-5" d="M607.71,294.7c.06-5.58.11-11.16.17-16.73.67-.63,1.33-1.27,2-1.91.26.83.53,1.66.79,2.48-.27,1.48-.6,2.97.55,4.27.2,1.07.39,2.13.59,3.19,0,0-.23.12-.23.12h.23c4.94,27.01,5.83,54.26,3.8,81.55-4.59,61.72-24.08,118.16-60.14,168.79-24.68,34.65-55.06,63.06-90.85,85.86-15.77,10.04-32.36,18.46-49.54,25.77-1.19.51-2.55.61-3.83.9.33-1.61,1.62-2.49,2.73-3.45,27.71-24,52.13-51.01,73.53-80.75.84-1.17,2.99-2,1.62-4.11,17.85-14.88,33.24-32.07,46.96-50.73,23.81-32.38,42.55-67.43,54.73-105.85,7.2-22.74,11.42-46.06,13.99-69.74,1.44-13.22,2.88-26.43,2.9-39.75,0,0,.38.06.38.06l-.38.04Z"/>
    <path class="cls-1" d="M489.13,560.68c1.36,2.11-.78,2.94-1.62,4.11-21.4,29.75-45.81,56.75-73.53,80.75-1.1.96-2.4,1.84-2.73,3.45,0,0-.01.03-.01.03-.84-.11-1.43.26-1.83.98-17.58,8.38-36.08,13.98-55.07,17.98-16.06,3.39-32.29,5.28-48.73,6.27-49.15,2.96-95.06-6.47-136.59-33.88-8.68-5.73-17.07-11.84-24.66-19.03,1.95-.74,3.12.8,4.53,1.52,22.79,11.75,46.96,19.34,72.39,22.16,62.15,6.9,121.18-5.32,178-30.23,30.28-13.28,58.2-30.53,84.6-50.33,1.72-1.29,3.5-2.52,5.25-3.78Z"/>
    <path class="cls-3" d="M599.57,517.69c2.91-5.95,5.73-11.94,8.76-17.83,8.03-15.58,13.92-31.98,19.02-48.71.78-2.56,1.11-5.44,3.71-8.1.96,5.09-1.34,9.44.19,14.71,6.38-26.02,7.38-51.9,10.78-78.28,3.74,8.72,4.48,17.31,5.44,25.74,1.51,13.18,2.65,26.45,2.09,39.74-1.61,38.03-10.38,74.13-28.82,107.73-15.12,27.55-34.99,51.22-57.82,72.55-16.83,15.72-35.47,29.08-55.56,40.26-14.08,7.84-29.05,13.9-44.06,19.76-.88.35-1.91.31-2.88.46.76-.6,1.46-1.33,2.3-1.79,26.4-14.5,49.85-32.92,71.63-53.58,23.7-22.47,42.96-48.46,59.79-76.26,4.01-6.63,9.46-12.73,10.73-20.86,1.85-.59,2.27-2.23,2.81-3.8,1.6-4.64,3.24-9.26,4.85-13.9,1.8-5.18,2.58-10.36-.1-15.96-.79,2.02-.96,4.04-2.06,4.97-3.77,3.2-5.72,7.26-7.05,11.86-.49,1.69-2.17,1.82-3.76,1.26Z"/>
    <path class="cls-1" d="M347.95,347.43c6.05,1.09,10.85,4.83,16.05,7.67,11.19,6.13,22.06,12.79,32.26,21.87-7.62.72-14.63,1.01-21.58,1.94-22.07,2.95-43.39,8.92-64.47,15.79-53.57,17.47-105.78,38.51-157.5,60.78-3.14,1.35-6.27,2.71-9.57,3.76,15.38-17.61,32.79-32.7,52.67-44.89,2.12.26,3.84-.95,5.6-1.75,21.4-9.76,42.73-19.7,64.16-29.4,25.58-11.57,51.44-22.48,77.63-32.59,1.8-.7,3.97-.92,4.74-3.18Z"/>
    <path class="cls-1" d="M137.41,526.44c12.44,27.01,34.51,42.79,61.61,52.54,29.31,10.54,59.67,12.46,90.44,10.48,36.37-2.35,71.89-9.49,106.91-19.34.62-.17,1.3-.11,2.84-.22-15.46,10.97-31.5,19-48.52,25.1-28.35,10.16-57.45,16.57-87.63,18.39-34.38,2.07-67.57-2.06-99.21-16.21-3.03-1.35-6.06-2.75-8.46-5.14-.07-.77-.5-1.18-1.27-1.23.04-1.41-.74-2.5-1.41-3.65-6.84-11.73-12.01-24.14-14.21-37.58-1.25-7.63-3.12-15.32-1.09-23.15Z"/>
    <path class="cls-2" d="M405.38,238.13c-13.92,9.3-27.29,18.24-40.66,27.18-1.48.99-2.93,1.3-4.66.45-26.55-13.04-53.92-24.37-79.86-38.67-4.41-2.43-5.97-4.78-4.51-10.02,4.55-16.33,5.98-33.16,6.6-51.51,38.83,28.71,80.9,49.88,123.11,72.57Z"/>
    <path class="cls-2" d="M604.89,533.24c-1.27,8.12-6.71,14.23-10.73,20.86-16.83,27.8-36.09,53.79-59.79,76.26-21.79,20.66-45.24,39.08-71.63,53.58-.84.46-1.54,1.19-2.3,1.79-.25.01-.47.1-.65.28-.47.21-.93.42-1.4.63-.25.02-.46.12-.64.3-.9-.13-1.67.07-2.21.86-3.26,1.1-6.31,2.8-9.79,3.21-3.94-7.76-7.62-15.67-12.77-22.76,19.94-9.25,39.07-19.9,57.07-32.55,30.79-21.64,58.02-47.03,81.39-76.59,8.66-10.95,16.45-22.48,24.14-34.1,2.3,3.65,6.25,5.43,9.31,8.22Z"/>
    <path class="cls-5" d="M274.81,120.21c20.81,9.92,40.57,19.44,60.41,28.79,33.7,15.87,67.46,31.62,101.18,47.45,6.02,2.83,12,5.76,17.98,8.67.86.42,2.08.7,2.06,1.85-.01,1.15-1.25,1.46-2.1,1.89-9.37,4.71-18.25,10.3-27.2,15.74-1.82,1.11-3.03,1.08-4.9.05-21.56-11.82-43.37-23.19-64.75-35.32-25.82-14.65-51.18-30.08-74.47-48.65-1.91-1.52-3.23-3.42-3.94-5.64-1.45-4.54-2.66-9.16-4.27-14.82Z"/>
    <path class="cls-2" d="M362.58,291.06c14.43-9.8,28.91-19.55,43.26-29.47,2.55-1.76,3.7-1.72,4.92,1.29,7.05,17.4,14.26,34.73,21.35,52.12,9.47,23.23,18.87,46.5,28.27,69.75.74,1.83,1.67,3.59,1.51,5.71-.16,2.1,3,4.65.59,5.98-1.58.87-3.67-2.15-5.25-3.65-6.39-6.07-14.38-10.17-20.36-16.72-.67-3.19-2.72-5.67-4.4-8.3-15.42-24.17-34.34-45.27-55.82-64.2-4.7-4.14-10.39-7.21-14.06-12.51Z"/>
    <path class="cls-3" d="M269.18,244.41c.98.47,1.75.8,2.48,1.2,21.56,11.88,44.28,21.28,66.67,31.38,5.25,2.37,5.18,2.76.6,6.16-9.98,7.43-19.95,14.88-29.85,22.42-1.77,1.35-3.32,1.82-5.46.91-15.79-6.74-32.4-10.86-48.94-15.17-7.38-1.92-7.01-1.65-3.9-8.28,5.43-11.55,11.83-22.66,15.87-34.84.5-1.52.78-3.2,2.54-3.79Z"/>
    <path class="cls-5" d="M470.53,355.74c-9.62-24.05-19.21-48.1-28.88-72.13-4.28-10.64-8.57-21.29-13.19-31.79-1.32-2.99-.33-4.06,1.99-5.45,12.42-7.43,24.8-14.93,37.12-22.53,3.24-2,4.11-1.4,4.1,2.39-.08,28.14,0,56.28-.02,84.42-.01,14.97.39,29.93-1.12,45.09Z"/>
    <path class="cls-5" d="M347.95,347.43c-.77,2.26-2.94,2.48-4.74,3.18-26.19,10.12-52.06,21.02-77.63,32.59-21.43,9.7-42.76,19.63-64.16,29.4-1.76.8-3.48,2.01-5.6,1.75,11.1-10.03,23.22-18.76,35.14-27.73,23.74-17.86,47.67-35.46,71.25-53.52,4.72-3.61,8.43-4.37,13.73-1.55,10.51,5.6,22.03,9.19,32.02,15.87Z"/>
    <path class="cls-1" d="M287.04,320.9c-38.09,27.2-74.26,54.8-109.85,83.16-.3-.36-.6-.71-.91-1.07,7.92-11.62,15.87-23.21,23.74-34.86,12.05-17.85,23.35-36.19,34.5-54.61,1.78-2.93,3.36-3.46,6.69-2.83,14.82,2.77,29.48,6.25,45.82,10.21Z"/>
    <path class="cls-3" d="M362.58,291.06c3.67,5.3,9.36,8.37,14.06,12.51,21.48,18.93,40.4,40.03,55.82,64.2,1.68,2.63,3.73,5.11,4.4,8.3-4.11-.43-6.59-3.61-9.72-5.71-30.12-20.24-61.05-39.07-94.77-52.81-3.9-1.59-3.5-2.41-.49-4.51,10.33-7.19,20.01-15.29,30.7-21.98Z"/>
    <path class="cls-5" d="M137.41,526.44c-2.03,7.82-.16,15.52,1.09,23.15,2.2,13.43,7.37,25.85,14.21,37.58.67,1.15,1.45,2.24,1.41,3.66-4.72-.54-8.01-3.73-11.49-6.41-12.19-9.41-21.83-20.94-27.56-35.34-9.99-25.14-3.13-47.49,11.98-68.28,2.58-3.55,5.37-6.99,9.64-9.52-4.72,18.58-5.97,36.96.71,55.17Z"/>
    <path class="cls-3" d="M414.99,698.75c-23.56,4.57-47.22,6.74-71.27,4.51-9.9-.92-19.73-2.08-30.93-3.65,14.9-2.72,28.55-4.6,42.09-7.2,14.07-2.7,27.65-7.1,41.46-10.69,1.12-.29,2.25-.49,3.38-.74,1.86,3.41,4.88,5.74,7.56,8.44,2.82,2.85,6.59,5.02,7.71,9.31Z"/>
    <path class="cls-1" d="M174.17,127.03c3.44,6.13,5.92,12.15,10.59,16.85,4.54,4.56,10.58,6.55,17.46,9.9-15.42,3.79-23.27,13.62-27.6,27.83-5.05-13.99-12.6-24.28-27.55-28.21,13.55-4.27,21.98-13.44,27.09-26.37Z"/>
    <path class="cls-1" d="M152.16,311.1c-13.85,3.87-21.48,13.26-26.02,27.5-5.21-13.71-12.61-23.67-26.85-27.17,12.58-4.9,21.72-12.88,26.41-27.63,5.13,13.86,12.91,23.26,26.46,27.3Z"/>
    <path class="cls-4" d="M414.99,698.75c-1.12-4.29-4.89-6.46-7.71-9.31-2.67-2.7-5.69-5.03-7.56-8.44,11.08-4.25,22.17-8.49,33.25-12.74,5.15,7.08,8.83,14.99,12.77,22.76-10,3.58-20.24,6.21-30.76,7.74Z"/>
    <path class="cls-4" d="M604.89,533.24c-3.06-2.79-7.01-4.57-9.31-8.22.86-2.7,2.34-5.07,3.99-7.34,1.59.55,3.27.43,3.76-1.26,1.33-4.6,3.28-8.67,7.05-11.86,1.09-.93,1.26-2.95,2.06-4.97,2.68,5.6,1.9,10.77.1,15.96-1.61,4.64-3.24,9.26-4.85,13.9-.54,1.57-.96,3.21-2.81,3.8Z"/>
    <path class="cls-3" d="M609.88,276.06c-.67.64-1.34,1.29-2,1.91,0-2.9,0-5.78,0-9.24,1.71,2.57,1.93,4.93,2,7.32Z"/>
    <path class="cls-3" d="M611.22,282.81c-1.16-1.3-.82-2.79-.55-4.27.19,1.43.37,2.85.55,4.27Z"/>
    <path class="cls-3" d="M611.82,286.12h-.23s.23-.12.23-.11c0,0,0,.11,0,.11Z"/>
    <path class="cls-5" d="M154.12,590.82c.77.05,1.2.46,1.27,1.23-.82,0-1.39-.27-1.27-1.23Z"/>
    <path class="cls-3" d="M455.54,687.8c.54-.79,1.31-.99,2.21-.86-.5.9-1.25,1.14-2.21.86Z"/>
    <polygon class="cls-3" points="607.71 294.7 608.09 294.66 607.71 294.6 607.71 294.7"/>
    <path class="cls-5" d="M409.41,650c.4-.72.99-1.08,1.83-.98-.39.73-1.03,1.02-1.83.98Z"/>
    <path class="cls-3" d="M458.39,686.64c.47-.21.93-.42,1.4-.63-.3.57-.75.82-1.4.63Z"/>
  </g>
</svg>